<mxfile host="app.diagrams.net" modified="2023-08-06T10:03:33.540Z" agent="Mozilla/5.0 (X11; Linux x86_64) AppleWebKit/537.36 (KHTML, like Gecko) Chrome/115.0.0.0 Safari/537.36 Edg/115.0.1901.183" version="21.6.6" etag="3Vb2UgCPZcVsFZKv3Txw" type="github">
  <diagram name="Page-1" id="EaJRbSgu3IDSsRnso6tf">
    <mxGraphModel>
      <root>
        <mxCell id="0" />
        <mxCell id="1" parent="0" />
      </root>
    </mxGraphModel>
  </diagram>
</mxfile>
